<svg width="17" height="24" viewBox="0 0 17 24" fill="none" xmlns="http://www.w3.org/2000/svg">
<path d="M8.5 3.24541V0L4.25 4.32724L8.5 8.65459V5.40903C12.006 5.40903 14.875 8.32995 14.875 11.9C14.875 12.9818 14.6094 14.0098 14.131 14.929L15.6719 16.4978C16.5217 15.1454 17 13.5766 17 11.9C17 7.14005 13.1749 3.24541 8.5 3.24541ZM8.5 18.391C4.9937 18.391 2.125 15.4698 2.125 11.9C2.125 10.8182 2.39062 9.79046 2.8687 8.87081L1.32812 7.30224C0.478072 8.60041 0 10.2232 0 11.9C0 16.6599 3.82511 20.5546 8.5 20.5546V23.8L12.75 19.4728L8.5 15.1454V18.391Z" fill="white"/>
</svg>
